# xmcd CD database file
#
# Track frame offsets:
#	150
#	27712
#	61701
#	94264
#	125264
#	158066
#	236813
#	268534
#
# Disc length: 3959 seconds
#
# Revision: 0
# Processed by: cddbd v1.5.1PL0 Copyright (c) Steve Scherf et al.
# Submitted via: CDex 1.51
#
DISCID=660f7508
DTITLE=Art Sherrod Jr. - Art Sherrod Jr. Live
DYEAR=2004
DGENRE=Jazz
TTITLE0=Art Sherrod Jr. - Art Sherrod Jr. Live - 01 - Ya Know
TTITLE1=Art Sherrod Jr. - Art Sherrod Jr. Live - 02 - Thinking Of You
TTITLE2=Art Sherrod Jr. - Art Sherrod Jr. Live - 03 - Sara Smile
TTITLE3=Art Sherrod Jr. - Art Sherrod Jr. Live - 04 - Can't Hide Love
TTITLE4=Art Sherrod Jr. - Art Sherrod Jr. Live - 05 - Between The Sheets
TTITLE5=Art Sherrod Jr. - Art Sherrod Jr. Live - 06 - What You Won't Do For Love
TTITLE6=Art Sherrod Jr. - Art Sherrod Jr. Live - 07 - Mr. Majic
TTITLE7=Art Sherrod Jr. - Art Sherrod Jr. Live - 08 - Butterfly
EXTD=YEAR: 2004
EXTT0=
EXTT1=
EXTT2=
EXTT3=
EXTT4=
EXTT5=
EXTT6=
EXTT7=
PLAYORDER=
